<?xml version="1.0" standalone="no"?>
<!DOCTYPE svg PUBLIC "-//W3C//DTD SVG 20010904//EN"
 "http://www.w3.org/TR/2001/REC-SVG-20010904/DTD/svg10.dtd">
<svg version="1.0" xmlns="http://www.w3.org/2000/svg"
 width="727.000000pt" height="727.000000pt" viewBox="0 0 727.000000 727.000000"
 preserveAspectRatio="xMidYMid meet">
<metadata>
Created by potrace 1.11, written by Peter Selinger 2001-2013
</metadata>
<g transform="translate(0.000000,727.000000) scale(0.100000,-0.100000)"
fill="#000000" stroke="none">
<path d="M2965 7191 c-109 -30 -245 -85 -430 -176 -487 -240 -845 -576 -1173
-1099 -259 -414 -421 -927 -462 -1459 -33 -434 113 -1197 311 -1625 21 -47 39
-87 39 -89 0 -3 -18 -2 -40 2 -77 13 -144 8 -187 -13 -70 -36 -120 -109 -130
-191 -7 -59 9 -112 49 -156 l29 -34 -19 -38 c-49 -97 -68 -340 -52 -673 11
-232 34 -632 46 -803 7 -84 6 -89 -16 -104 -46 -32 -64 -129 -37 -196 50 -119
338 -264 704 -356 331 -83 624 -109 1574 -141 435 -14 728 4 1080 65 379 67
787 193 1014 314 67 36 73 37 151 33 61 -3 90 0 112 12 60 31 102 105 102 180
0 29 -54 92 -109 127 l-23 15 11 214 c6 118 11 320 11 449 l0 233 38 -23 c103
-63 349 -173 449 -200 l75 -21 45 29 c25 15 54 43 63 61 l18 33 56 -80 c30
-44 60 -82 65 -86 6 -3 8 -12 5 -19 -3 -8 0 -17 5 -21 6 -3 9 -10 6 -14 -6
-11 96 -122 116 -125 8 -1 28 -12 44 -24 28 -22 30 -22 42 -6 11 15 10 21 -8
40 -12 13 -19 30 -16 38 8 21 -81 124 -130 151 -48 26 -173 205 -173 246 0 65
33 111 118 166 56 36 91 92 92 144 0 15 7 43 15 63 21 50 0 103 -44 112 -27 6
-39 21 -98 132 -74 136 -135 212 -213 262 -67 43 -67 68 -2 106 207 120 404
329 473 501 20 50 24 76 24 183 0 116 -2 129 -28 185 -55 117 -114 166 -223
186 -32 6 -61 13 -63 15 -2 2 -6 34 -8 70 -2 36 -15 101 -29 143 -32 94 -119
276 -172 357 -56 86 -158 191 -247 255 l-77 54 5 54 c7 69 65 168 95 163 30
-4 39 35 14 60 -19 20 -20 20 -38 0 -11 -12 -41 -27 -67 -34 -57 -15 -73 -8
-102 45 -19 35 -19 37 -1 87 14 40 16 53 6 65 -17 21 -33 19 -58 -8 -17 -18
-21 -31 -16 -55 6 -28 1 -37 -38 -77 -49 -48 -78 -56 -116 -29 -12 8 -22 26
-22 38 0 47 -52 58 -64 13 -3 -12 2 -32 10 -46 10 -14 17 -49 18 -89 l1 -66
-55 5 c-132 10 -356 3 -436 -14 l-81 -18 -69 25 c-122 44 -196 59 -287 60
l-89 0 6 26 c21 109 28 223 23 395 -10 336 -43 527 -107 628 -16 26 -30 54
-30 61 0 8 17 29 38 48 73 66 89 115 58 176 -21 40 -114 124 -169 152 -46 24
-48 27 -43 58 3 19 17 50 32 69 18 24 29 52 32 84 4 47 4 48 -34 67 -22 11
-56 25 -77 31 -51 17 -239 143 -260 175 -28 43 -22 111 18 195 20 41 32 78 28
82 -34 34 -445 45 -603 16 -52 -10 -103 -20 -114 -24 -17 -5 -18 0 -12 79 6
70 5 87 -8 97 -25 21 -87 22 -161 2z"/>
</g>
</svg>
